#!OML:ASF I:\Actors\actors\Patient Classification 1\Patient 1\Session 1\Subject1.ASF
:FULLY-SPECIFIED
:DEGREES
537
root 0.608149 17.5989 8.40714 20.7695 -54.7081 -9.31142
lowerback 6.48066 -4.41835 5.41472
upperback -8.44204 -5.10507 3.4704
thorax -13.0156 -2.79999 1.71374
lowerneck -15.6686 4.41963 6.42146
upperneck 24.1836 3.43904 2.89403
head 10.4414 2.42163 0.406284
rclavicle -1.18153e-014 7.95139e-016
rhumerus 22.125 49.7103 -61.6367
rradius 119.2
rwrist -26.9619
rhand -6.03372 -62.9414
rfingers 7.12502
rthumb 19.7999 -988.047
lclavicle -1.18153e-014 7.95139e-016
lhumerus 32.8068 -2.92806 86.2617
lradius 47.9592
lwrist 55.1778
lhand -3.826 -2.37853
lfingers 7.12502
lthumb 21.921 26.3996
rfemur -29.5991 32.8006 8.96339
rtibia 12.5406
rfoot -3.56871 12.5756
rtoes 6.62344
lfemur 0.797468 -14.3872 -23.9659
ltibia 0.0978749
lfoot -40.9654 53.8225
ltoes 28.7676
538
root 0.612901 17.6204 8.41142 21.0435 -56.0334 -9.32996
lowerback 6.44371 -4.46315 5.09544
upperback -8.54214 -5.20169 3.58719
thorax -13.0651 -2.81363 2.03799
lowerneck -15.6115 4.60246 6.66572
upperneck 24.1676 3.7254 2.54963
head 10.4426 2.53306 0.282189
rclavicle -6.80216e-014 1.31198e-014
rhumerus 20.9989 50.3175 -61.9621
rradius 119.506
rwrist -26.5367
rhand -5.4416 -62.6831
rfingers 7.12502
rthumb 20.3691 -988.365
lclavicle -6.80216e-014 1.31198e-014
lhumerus 33.3475 -2.94098 86.631
lradius 48.1412
lwrist 55.6851
lhand -4.35029 -0.649437
lfingers 7.12502
lthumb 21.4176 28.1867
rfemur -29.9504 32.9951 8.75811
rtibia 12.3082
rfoot -3.01671 12.9203
rtoes 7.38076
lfemur 0.57424 -13.5114 -24.2462
ltibia 0.152165
lfoot -40.9803 53.7511
ltoes 28.6438
539
root 0.615947 17.6282 8.42879 21.1686 -57.2731 -9.46345
lowerback 6.49767 -4.53285 5.25759
upperback -8.58254 -5.27879 3.54909
thorax -13.1701 -2.86891 1.93317
lowerneck -15.5356 4.81826 7.02943
upperneck 24.1185 4.03696 2.17603
head 10.4353 2.66312 0.131231
rclavicle -1.49585e-014 5.40694e-014
rhumerus 19.2834 51.9654 -62.6069
rradius 119.061
rwrist -26.9104
rhand -5.61564 -62.2229
rfingers 7.12502
rthumb 20.2018 -988.808
lclavicle -1.49585e-014 5.40694e-014
lhumerus 33.628 -2.85778 87.4969
lradius 47.7666
lwrist 55.4945
lhand -5.0859 -2.56478
lfingers 7.12502
lthumb 20.7109 26.3501
rfemur -29.9273 33.1443 8.72228
rtibia 11.9968
rfoot -2.65048 13.4896
rtoes 7.7633
lfemur 0.781969 -13.3354 -24.6499
ltibia 0.0702931
lfoot -41.7561 53.9711
ltoes 28.9914
540
root 0.612384 17.6135 8.44577 21.9999 -58.1715 -10.7393
lowerback 6.63501 -4.64925 6.07388
upperback -8.51828 -5.31261 3.69282
thorax -13.2626 -2.95263 1.66555
lowerneck -15.5221 5.06357 7.33316
upperneck 24.1457 4.38125 1.86718
head 10.4682 2.81199 0.020709
rclavicle -7.55382e-015 7.95139e-016
rhumerus 17.0572 53.7313 -63.7752
rradius 117.904
rwrist -26.651
rhand -1.45773 -63.813
rfingers 7.12502
rthumb 24.1934 -987.693
lclavicle -7.55382e-015 7.95139e-016
lhumerus 32.9691 -3.14964 88.2224
lradius 47.5611
lwrist 55.2654
lhand -5.35203 -2.23028
lfingers 7.12502
lthumb 20.4551 26.7123
rfemur -29.5145 33.4753 9.57327
rtibia 11.7226
rfoot -2.48355 14.2047
rtoes 8.3783
lfemur 1.35196 -13.2565 -24.3459
ltibia -0.0611696
lfoot -42.5683 54.1391
ltoes 29.3525
541
root 0.603499 17.5709 8.45525 24.0899 -58.4083 -13.8388
lowerback 6.94217 -4.89572 7.91385
upperback -8.34483 -5.3474 4.12606
thorax -13.4329 -3.1135 1.17813
lowerneck -15.4637 5.25875 7.58178
upperneck 24.158 4.67895 1.54366
head 10.486 2.93227 -0.0938265
rclavicle 8.46077e-015 -7.55382e-015
rhumerus 14.5983 55.6304 -65.1928
rradius 116.553
rwrist -27.195
rhand -3.66287 -62.5253
rfingers 7.12502
rthumb 22.0777 -988.715
lclavicle 8.46077e-015 -7.55382e-015
lhumerus 31.9512 -3.77251 88.6352
lradius 46.8123
lwrist 54.3306
lhand -4.90021 -1.34673
lfingers 7.12502
lthumb 20.8893 27.5486
rfemur -28.5836 33.968 11.8759
rtibia 11.5167
rfoot -2.46164 14.9237
rtoes 9.68185
lfemur 2.31187 -12.8937 -22.807
ltibia -0.317842
lfoot -43.081 54.0779
ltoes 29.7006
